<svg width="110" height="33" viewBox="0 0 110 33" fill="none" xmlns="http://www.w3.org/2000/svg">
<g id="Title">
<path id="Vector" d="M106.695 0C107.775 0 108.459 0.755999 108.459 1.872V20.088C108.459 21.204 107.775 21.96 106.695 21.96C105.615 21.96 104.931 21.204 104.931 20.088V1.872C104.931 0.755999 105.615 0 106.695 0ZM87.1833 5.328C85.9953 5.508 85.2033 4.896 85.1313 3.744C85.0593 2.736 85.7433 1.944 86.7513 1.8C89.0913 1.476 91.7553 1.44 94.5993 1.728C99.4953 2.124 100.863 5.76 100.467 9.072C99.8913 14.004 94.5273 17.46 88.1193 19.116C86.9673 19.368 86.1753 19.224 85.7433 18.396C85.2033 17.388 85.6353 16.2 86.8233 15.984C93.1233 14.292 96.5793 11.592 97.0113 8.64C97.2633 6.84 96.5073 5.472 94.0953 5.184C91.5393 4.86 89.3793 5.004 87.1833 5.328ZM86.5713 12.024C85.5993 12.06 84.8433 11.304 84.8433 10.296C84.8433 9.288 85.6353 8.604 86.6073 8.568C88.5153 8.496 90.9993 8.1 92.8353 7.596C93.8793 7.308 94.7073 8.316 94.7073 9.36C94.7073 10.26 94.0593 10.8 93.1233 11.052C91.0353 11.628 88.8033 11.952 86.5713 12.024ZM87.8313 28.656C92.7993 28.044 95.6073 26.244 95.6073 22.86V20.952C95.6073 19.908 96.3273 19.08 97.3713 19.08C98.4153 19.08 99.1353 19.908 99.1353 20.952V22.86C99.1353 28.152 95.1033 31.14 88.6953 32.112C87.6153 32.292 86.6793 31.896 86.3913 30.888C86.1033 29.808 86.7513 28.8 87.8313 28.656ZM107.487 32.148C104.859 31.716 102.375 30.78 99.9993 29.016C99.1353 28.368 99.2793 27.252 100.035 26.532C100.719 25.884 101.511 25.776 102.339 26.388C104.103 27.612 105.615 28.296 108.423 28.764C109.791 29.016 110.115 30.132 109.755 31.068C109.395 32.004 108.495 32.328 107.487 32.148Z" fill="#ED335D"/>
<path id="Vector_2" d="M78.6222 0C79.7022 0 80.3862 0.755999 80.3862 1.872V30.744C80.3862 31.86 79.7022 32.616 78.6222 32.616C77.5422 32.616 76.8582 31.86 76.8582 30.744V16.776H71.8182V27.828C71.8182 28.836 71.3142 29.412 70.3062 29.664C68.9022 30.024 65.1942 30.24 62.7462 30.096C59.1822 29.88 57.0582 28.224 57.0582 24.732V3.6C57.0582 2.52 57.7422 1.728 58.8222 1.728C59.9022 1.728 60.5862 2.52 60.5862 3.6V12.816H68.2902V3.6C68.2902 2.52 68.9742 1.728 70.0542 1.728C71.1342 1.728 71.8182 2.52 71.8182 3.6V13.32H76.8582V1.872C76.8582 0.755999 77.5422 0 78.6222 0ZM62.9622 26.568C64.8702 26.712 66.6342 26.676 68.2902 26.496V16.272H60.5862V24.732C60.5862 25.992 61.0182 26.424 62.9622 26.568Z" fill="#ED335D"/>
<path id="Vector_3" d="M31.4262 9.21599C36.4662 8.81999 39.0222 7.41599 39.0222 5.14799V4.06799H32.3262C31.2822 4.06799 30.5982 3.45599 30.5982 2.41199C30.5982 1.40399 31.3182 0.791992 32.3262 0.791992H50.6142C51.6222 0.791992 52.3422 1.40399 52.3422 2.41199C52.3422 3.45599 51.6582 4.06799 50.6142 4.06799H42.5502V5.14799C42.5502 9.79199 38.8062 12.06 32.5062 12.6C31.6422 12.672 30.8862 12.492 30.4542 11.808C29.8062 10.872 30.2382 9.32399 31.4262 9.21599ZM51.4422 9.21599C52.5582 9.35999 53.0622 10.764 52.5222 11.736C52.1262 12.528 51.2262 12.672 50.2902 12.564C47.6982 12.204 45.6102 11.592 43.7022 10.368C42.8022 9.79199 42.6942 8.63999 43.4142 7.77599C43.9902 7.12799 44.7462 7.05599 45.6822 7.55999C46.9062 8.27999 48.8142 8.92799 51.4422 9.21599ZM43.3062 15.192H52.8102C53.8182 15.192 54.4662 15.876 54.4662 16.92C54.4662 17.964 53.8182 18.648 52.8102 18.648H30.8862C29.8422 18.648 29.1942 17.964 29.1942 16.92C29.1942 15.876 29.8422 15.192 30.8862 15.192H39.7782V13.104C39.7782 12.06 40.4982 11.34 41.5422 11.34C42.5862 11.34 43.3062 12.06 43.3062 13.104V15.192ZM41.8302 20.736C48.2022 20.736 51.9462 22.752 51.9462 26.784C51.9462 30.816 48.2022 32.832 41.8302 32.832C35.4582 32.832 31.7142 30.816 31.7142 26.784C31.7142 22.752 35.4582 20.736 41.8302 20.736ZM41.8302 29.376C45.9702 29.376 48.4182 28.548 48.4182 26.784C48.4182 25.02 45.9702 24.192 41.8302 24.192C37.6902 24.192 35.2422 25.02 35.2422 26.784C35.2422 28.548 37.6902 29.376 41.8302 29.376Z" fill="#233D4E"/>
<path id="Vector_4" d="M25.6457 0C26.7257 0 27.4097 0.755999 27.4097 1.872V30.744C27.4097 31.86 26.7257 32.616 25.6457 32.616C24.5657 32.616 23.8817 31.86 23.8817 30.744V1.872C23.8817 0.755999 24.5657 0 25.6457 0ZM20.1017 0.215999C21.1817 0.215999 21.8657 0.935999 21.8657 2.052V30.6C21.8657 31.716 21.1817 32.436 20.1017 32.436C19.0217 32.436 18.3377 31.716 18.3377 30.6V16.632H13.6937C12.6497 16.632 12.0017 15.948 12.0017 14.904C12.0017 13.86 12.6497 13.176 13.6937 13.176H18.3377V2.052C18.3377 0.935999 19.0217 0.215999 20.1017 0.215999ZM9.4097 3.816V12.672C9.4097 19.836 7.2857 25.668 3.3617 29.376C2.5697 30.132 1.7777 30.348 0.913704 29.88C-0.094296 29.304 -0.346296 27.972 0.553704 27.144C4.0457 24.012 5.8817 18.936 5.8817 12.816V3.816C5.8817 2.736 6.5657 1.944 7.6457 1.944C8.7257 1.944 9.4097 2.736 9.4097 3.816ZM12.4697 21.852C13.1897 23.76 14.1617 25.524 15.6377 27.144C16.3577 27.936 16.3937 28.944 15.6737 29.628C14.9537 30.312 13.7657 30.384 12.9737 29.556C11.4977 27.972 10.2017 25.848 9.08571 23.184C8.68971 22.032 9.26571 21.024 10.1657 20.736C11.1017 20.412 12.0737 20.7 12.4697 21.852Z" fill="#233D4E"/>
</g>
</svg>
