<svg width="122" height="56" viewBox="0 0 122 56" fill="none" xmlns="http://www.w3.org/2000/svg">
<g id="Group 135">
<g id="&#236;&#167;&#129;&#236;&#160;&#145; &#234;&#179;&#160;&#235;&#165;&#180;&#235;&#138;&#148; &#235;&#130;&#180; &#236;&#130;&#172;&#235;&#172;&#188;&#237;&#149;&#168;">
<path id="Vector" d="M116.792 2.457C115.644 2.485 109.498 2.485 108.616 2.457C108.56 2.051 108.56 1.477 108.616 1.071C108.952 1.057 110.366 1.057 111.948 1.057C111.934 0.693 111.948 0.329 111.962 0.0629998C112.298 -0.0209999 113.236 -0.0209999 113.684 0.0629998C113.698 0.329 113.712 0.693 113.698 1.057C115.042 1.057 116.246 1.057 116.792 1.071C116.82 1.463 116.834 2.093 116.792 2.457ZM121.02 3.171C121.062 3.577 121.062 4.221 121.02 4.641C120.782 4.669 120.264 4.683 119.704 4.683C119.704 5.943 119.69 7.105 119.676 7.721C119.326 7.777 118.458 7.763 118.052 7.721C118.01 6.405 118.01 1.519 118.052 0.315C118.374 0.259 119.284 0.259 119.676 0.315C119.69 0.917 119.69 1.981 119.704 3.157C120.222 3.157 120.726 3.157 121.02 3.171ZM112.816 7.581C110.1 7.581 109.008 6.951 109.008 5.271C109.008 3.535 110.184 2.961 112.816 2.961C115.532 2.961 116.624 3.591 116.624 5.271C116.624 7.007 115.448 7.581 112.816 7.581ZM112.816 4.277C111.094 4.277 110.548 4.613 110.548 5.271C110.548 5.943 111.136 6.279 112.816 6.279C114.538 6.279 115.084 5.943 115.084 5.271C115.084 4.613 114.496 4.277 112.816 4.277ZM109.512 8.393C110.716 8.351 118.794 8.351 119.676 8.393C119.732 9.583 119.732 11.669 119.676 12.817C118.416 12.901 110.87 12.915 109.512 12.817C109.442 11.361 109.47 9.793 109.512 8.393ZM118.066 11.445C118.094 10.927 118.094 10.381 118.066 9.793C117.156 9.751 112.13 9.765 111.122 9.793C111.094 10.339 111.08 10.815 111.122 11.445C111.934 11.487 117.282 11.473 118.066 11.445Z" fill="#ED335D"/>
<path id="Vector_2" d="M107.119 4.27703C106.139 4.33303 98.1727 4.34703 97.0947 4.27703C96.9967 2.94703 97.0247 1.75703 97.0947 0.455026C98.0187 0.399026 106.237 0.413027 107.119 0.455026C107.203 1.81303 107.203 3.46503 107.119 4.27703ZM98.6487 1.75703V3.00303C99.3767 3.03103 104.865 3.03103 105.565 3.00303V1.75703C104.739 1.74303 99.5727 1.72903 98.6487 1.75703ZM108.085 5.08903C108.127 5.48103 108.127 5.97103 108.085 6.39103C107.301 6.41903 105.215 6.43303 102.961 6.43303V7.38503C104.767 7.38503 106.349 7.39903 107.217 7.41303C107.287 7.98703 107.287 10.143 107.217 10.745H98.5927V11.599H107.539C107.595 11.963 107.581 12.481 107.539 12.845C106.643 12.915 98.7047 12.929 96.9547 12.845C96.8987 12.075 96.8707 10.675 96.9547 9.52703H105.579V8.68703H96.9827C96.9267 8.30903 96.9267 7.67903 96.9827 7.41303C98.2987 7.39903 99.7967 7.38503 101.267 7.38503C101.253 7.07703 101.253 6.76903 101.253 6.43303C99.0967 6.43303 97.0527 6.41903 96.1287 6.39103C96.0867 6.01303 96.0867 5.49503 96.1287 5.08903C99.0967 5.03303 106.279 5.06103 108.085 5.08903Z" fill="#ED335D"/>
<path id="Vector_3" d="M95.8918 5.14497C95.9338 5.55097 95.9338 6.26497 95.8918 6.68497C95.5698 6.71297 95.1078 6.72697 94.5198 6.71297C94.5198 9.38697 94.5058 12.005 94.4778 12.831C94.1278 12.873 93.2458 12.873 92.8398 12.831C92.7838 11.179 92.7978 1.99497 92.8398 0.314973C93.1618 0.244973 94.0858 0.258973 94.4778 0.314973C94.5058 1.07097 94.5198 2.98897 94.5198 5.13097C95.0518 5.13097 95.5278 5.13097 95.8918 5.14497ZM88.3458 0.650973C88.3738 1.51897 88.3878 3.87097 88.3738 5.53697C89.4938 7.25897 91.1318 9.73697 91.8878 10.983C91.6358 11.305 90.9218 11.781 90.5858 11.893C89.9698 11.025 88.5838 8.88297 87.5058 7.09097C86.5818 8.95297 85.4058 11.179 84.8458 12.089C84.5098 12.005 83.7258 11.627 83.4458 11.333C84.1318 10.017 85.6158 7.24497 86.6238 5.38297C86.5958 3.68897 86.6098 1.43497 86.6378 0.650973C86.9598 0.580973 87.9538 0.580973 88.3458 0.650973Z" fill="#ED335D"/>
<path id="Vector_4" d="M79.9054 0.315012C79.9474 2.06501 79.9334 11.151 79.9054 12.831C79.5974 12.887 78.7434 12.859 78.3374 12.831C78.3234 11.991 78.3234 9.33101 78.3234 6.65701C77.8194 6.67101 77.1894 6.67101 76.6014 6.65701C76.6014 9.28901 76.5874 11.879 76.5874 12.705C76.2794 12.747 75.4254 12.747 75.0194 12.705C74.9634 11.011 74.9774 1.93901 75.0194 0.385012C75.3414 0.315012 76.2374 0.315012 76.5874 0.385012C76.6014 1.09901 76.6154 3.01701 76.6154 5.14501H78.3234C78.3234 2.94701 78.3234 0.959012 78.3374 0.315012C78.6594 0.245012 79.5694 0.245012 79.9054 0.315012ZM70.2314 10.353C71.1694 10.325 73.1714 10.325 74.1654 10.353C74.2214 10.773 74.2214 11.431 74.1654 11.837C73.1154 11.879 69.8534 11.893 68.5794 11.837C68.4954 9.17701 68.5094 2.63901 68.5654 0.707012C68.9154 0.665013 69.8394 0.665013 70.2314 0.707012C70.2734 2.75101 70.2594 8.00101 70.2314 10.353Z" fill="#597486"/>
<path id="Vector_5" d="M53.9791 4.71101C53.9091 3.53501 53.9231 1.37901 53.9791 0.427008C54.3291 0.385008 55.2531 0.385008 55.6451 0.427008C55.6731 1.29501 55.6731 2.47101 55.6451 3.29701C56.8631 3.25501 62.9531 3.25501 64.0591 3.29701C64.1011 3.71701 64.1011 4.30501 64.0591 4.71101C62.9111 4.76701 55.3231 4.76701 53.9791 4.71101ZM53.0131 7.49701C52.9711 7.11901 52.9711 6.48901 53.0131 6.08301C55.9811 6.02701 63.1631 6.04101 64.9691 6.08301C65.0111 6.46101 65.0111 7.06301 64.9691 7.49701C63.2471 7.55301 55.1411 7.55301 53.0131 7.49701ZM53.8391 12.845C53.7691 11.795 53.7971 9.42901 53.8391 8.56101C54.1751 8.51901 55.1131 8.51901 55.5051 8.56101C55.5331 9.34501 55.5331 10.773 55.5051 11.417C58.1371 11.403 63.2751 11.389 64.4231 11.417C64.4791 11.809 64.4791 12.439 64.4231 12.845C63.2191 12.915 55.0991 12.915 53.8391 12.845Z" fill="#597486"/>
<path id="Vector_6" d="M41.2402 8.43498C41.1422 6.92298 41.1562 5.34098 41.2402 3.87098C42.4022 3.84298 48.8982 3.84298 49.7662 3.87098V2.16298C48.6462 2.19098 42.4582 2.19098 41.2962 2.16298C41.2402 1.75698 41.2402 1.14098 41.2962 0.734976C42.3602 0.678976 50.0322 0.678976 51.4182 0.748976C51.5162 2.24698 51.5022 3.80098 51.4182 5.29898C50.2142 5.35498 44.1522 5.31298 42.9062 5.29898V7.00698C44.0122 6.99298 50.5222 6.97898 51.6982 7.00698C51.7542 7.41298 51.7542 8.02898 51.6982 8.43498C50.5362 8.47698 42.6962 8.50498 41.2402 8.43498ZM40.4142 12.439C40.3722 12.033 40.3722 11.445 40.4142 11.011C42.9902 10.969 50.9702 10.983 52.3702 11.011C52.4122 11.431 52.4122 11.977 52.3702 12.439C51.0542 12.523 42.1502 12.495 40.4142 12.439Z" fill="#597486"/>
<path id="Vector_7" d="M37.0273 2.33097C34.6053 2.33097 29.8033 2.37297 28.6413 2.33097C28.5853 1.92497 28.5853 1.28097 28.6413 0.874974C29.8453 0.832973 37.2513 0.804974 38.6793 0.874974C38.7493 2.12097 38.7493 8.08497 38.6793 8.99497C38.3433 9.05097 37.4193 9.05097 37.0273 8.99497C36.9993 8.11297 36.9993 3.04497 37.0273 2.33097ZM39.7713 11.011C39.8133 11.431 39.8133 11.977 39.7713 12.439C38.4553 12.523 29.5513 12.495 27.8153 12.439C27.7733 12.033 27.7733 11.445 27.8153 11.011C28.7253 10.997 30.3213 10.983 32.0713 10.983C32.0573 9.37297 32.0713 5.99897 32.0993 5.28497C32.4633 5.20097 33.3453 5.21497 33.7513 5.28497C33.7653 6.05497 33.7793 9.40097 33.7653 10.983C36.4253 10.983 39.0293 10.997 39.7713 11.011Z" fill="#597486"/>
<path id="Vector_8" d="M19.9629 2.86301C20.3689 2.84901 21.3909 2.84901 22.2449 2.84901C22.2449 1.75701 22.2589 0.77701 22.2729 0.31501C22.5949 0.25901 23.5049 0.25901 23.8969 0.31501C23.9249 1.77101 23.9389 5.71901 23.8969 7.11901C23.5469 7.16101 22.6789 7.16101 22.2729 7.11901C22.2589 6.58701 22.2449 5.52301 22.2449 4.38901C21.4049 4.38901 20.3829 4.37501 19.9629 4.36101C19.9209 3.94101 19.9209 3.26901 19.9629 2.86301ZM19.7669 6.97901C18.7169 6.41901 17.5829 5.77501 16.5469 5.14501C15.5249 5.90101 14.3909 6.68501 13.4249 7.32901C13.1449 7.09101 12.6969 6.48901 12.5289 6.12501C13.5229 5.41101 14.6149 4.64101 15.6369 3.91301V2.03701C14.3629 2.03701 13.2149 2.02301 12.7949 2.00901C12.7389 1.57501 12.7389 1.00101 12.7949 0.609011C13.8449 0.58101 18.1709 0.553011 20.1449 0.609011C20.1869 1.01501 20.1869 1.63101 20.1449 2.00901C19.6549 2.02301 18.5489 2.02301 17.3589 2.03701V3.85701C18.4229 4.45901 19.5149 5.08901 20.5649 5.69101C20.4249 6.05501 20.0329 6.71301 19.7669 6.97901ZM23.8969 7.77701C23.9389 9.20501 23.9529 11.291 23.8969 12.817C22.4689 12.901 15.3569 12.915 13.8309 12.817C13.7609 11.389 13.7609 8.72901 13.8309 7.77701C14.1529 7.73501 15.1469 7.74901 15.4269 7.77701V8.85501C17.3169 8.82701 20.3689 8.82701 22.2869 8.85501V7.77701C22.8609 7.74901 23.4909 7.74901 23.8969 7.77701ZM15.4269 10.213V11.445C16.8689 11.473 21.0689 11.473 22.2869 11.445V10.213C20.2989 10.241 17.3029 10.241 15.4269 10.213Z" fill="#597486"/>
<path id="Vector_9" d="M11.298 7.45501C10.948 7.51101 10.08 7.49701 9.674 7.45501C9.632 6.15301 9.632 1.50501 9.674 0.31501C9.996 0.25901 10.906 0.25901 11.298 0.31501C11.326 1.79901 11.34 6.04101 11.298 7.45501ZM7.406 7.02101C6.342 6.37701 5.166 5.64901 4.116 4.92101C3.108 5.74701 1.96 6.64301 0.994 7.37101C0.7 7.14701 0.196 6.58701 0 6.23701L3.248 3.66101C3.234 3.17101 3.234 2.56901 3.248 2.03701C1.904 2.03701 0.686 2.02301 0.266 2.00901C0.21 1.57501 0.21 1.00101 0.266 0.609011C1.33 0.58101 5.908 0.553011 7.882 0.609011C7.924 1.01501 7.924 1.63101 7.882 2.00901C7.378 2.02301 6.23 2.02301 4.956 2.03701C4.97 2.56901 4.97 3.17101 4.956 3.66101C6.062 4.36101 7.21 5.08901 8.288 5.80301C8.12 6.15301 7.686 6.78301 7.406 7.02101ZM11.298 8.12701C11.368 9.44301 11.34 12.075 11.298 12.817C10.962 12.859 10.08 12.859 9.688 12.817C9.66 12.047 9.688 10.479 9.688 9.58301C7.042 9.58301 2.226 9.62501 1.162 9.58301C1.106 9.16301 1.106 8.53301 1.162 8.12701C2.282 8.07101 9.968 8.05701 11.298 8.12701Z" fill="#597486"/>
</g>
<g id="Title">
<path id="Vector_10" d="M110.934 22.271C112.014 22.271 112.698 23.027 112.698 24.143V42.359C112.698 43.475 112.014 44.231 110.934 44.231C109.854 44.231 109.17 43.475 109.17 42.359V24.143C109.17 23.027 109.854 22.271 110.934 22.271ZM91.422 27.599C90.234 27.779 89.442 27.167 89.37 26.015C89.298 25.007 89.982 24.215 90.99 24.071C93.33 23.747 95.994 23.711 98.838 23.999C103.734 24.395 105.102 28.031 104.706 31.343C104.13 36.275 98.766 39.731 92.358 41.387C91.206 41.639 90.414 41.495 89.982 40.667C89.442 39.659 89.874 38.471 91.062 38.255C97.362 36.563 100.818 33.863 101.25 30.911C101.502 29.111 100.746 27.743 98.334 27.455C95.778 27.131 93.618 27.275 91.422 27.599ZM90.81 34.295C89.838 34.331 89.082 33.575 89.082 32.567C89.082 31.559 89.874 30.875 90.846 30.839C92.754 30.767 95.238 30.371 97.074 29.867C98.118 29.579 98.946 30.587 98.946 31.631C98.946 32.531 98.298 33.071 97.362 33.323C95.274 33.899 93.042 34.223 90.81 34.295ZM92.07 50.927C97.038 50.315 99.846 48.515 99.846 45.131V43.223C99.846 42.179 100.566 41.351 101.61 41.351C102.654 41.351 103.374 42.179 103.374 43.223V45.131C103.374 50.423 99.342 53.411 92.934 54.383C91.854 54.563 90.918 54.167 90.63 53.159C90.342 52.079 90.99 51.071 92.07 50.927ZM111.726 54.419C109.098 53.987 106.614 53.051 104.238 51.287C103.374 50.639 103.518 49.523 104.274 48.803C104.958 48.155 105.75 48.047 106.578 48.659C108.342 49.883 109.854 50.567 112.662 51.035C114.03 51.287 114.354 52.403 113.994 53.339C113.634 54.275 112.734 54.599 111.726 54.419Z" fill="#ED335D"/>
<path id="Vector_11" d="M82.861 22.271C83.941 22.271 84.625 23.027 84.625 24.143V53.015C84.625 54.131 83.941 54.887 82.861 54.887C81.781 54.887 81.097 54.131 81.097 53.015V39.047H76.057V50.099C76.057 51.107 75.553 51.683 74.545 51.935C73.141 52.295 69.433 52.511 66.985 52.367C63.421 52.151 61.297 50.495 61.297 47.003V25.871C61.297 24.791 61.981 23.999 63.061 23.999C64.141 23.999 64.825 24.791 64.825 25.871V35.087H72.529V25.871C72.529 24.791 73.213 23.999 74.293 23.999C75.373 23.999 76.057 24.791 76.057 25.871V35.591H81.097V24.143C81.097 23.027 81.781 22.271 82.861 22.271ZM67.201 48.839C69.109 48.983 70.873 48.947 72.529 48.767V38.543H64.825V47.003C64.825 48.263 65.257 48.695 67.201 48.839Z" fill="#ED335D"/>
<path id="Vector_12" d="M35.665 31.487C40.705 31.091 43.261 29.687 43.261 27.419V26.339H36.565C35.521 26.339 34.837 25.727 34.837 24.683C34.837 23.675 35.557 23.063 36.565 23.063H54.853C55.861 23.063 56.581 23.675 56.581 24.683C56.581 25.727 55.897 26.339 54.853 26.339H46.789V27.419C46.789 32.063 43.045 34.331 36.745 34.871C35.881 34.943 35.125 34.763 34.693 34.079C34.045 33.143 34.477 31.595 35.665 31.487ZM55.681 31.487C56.797 31.631 57.301 33.035 56.761 34.007C56.365 34.799 55.465 34.943 54.529 34.835C51.937 34.475 49.849 33.863 47.941 32.639C47.041 32.063 46.933 30.911 47.653 30.047C48.229 29.399 48.985 29.327 49.921 29.831C51.145 30.551 53.053 31.199 55.681 31.487ZM47.545 37.463H57.049C58.057 37.463 58.705 38.147 58.705 39.191C58.705 40.235 58.057 40.919 57.049 40.919H35.125C34.081 40.919 33.433 40.235 33.433 39.191C33.433 38.147 34.081 37.463 35.125 37.463H44.017V35.375C44.017 34.331 44.737 33.611 45.781 33.611C46.825 33.611 47.545 34.331 47.545 35.375V37.463ZM46.069 43.007C52.441 43.007 56.185 45.023 56.185 49.055C56.185 53.087 52.441 55.103 46.069 55.103C39.697 55.103 35.953 53.087 35.953 49.055C35.953 45.023 39.697 43.007 46.069 43.007ZM46.069 51.647C50.209 51.647 52.657 50.819 52.657 49.055C52.657 47.291 50.209 46.463 46.069 46.463C41.929 46.463 39.481 47.291 39.481 49.055C39.481 50.819 41.929 51.647 46.069 51.647Z" fill="#233D4E"/>
<path id="Vector_13" d="M29.8845 22.271C30.9645 22.271 31.6485 23.027 31.6485 24.143V53.015C31.6485 54.131 30.9645 54.887 29.8845 54.887C28.8045 54.887 28.1205 54.131 28.1205 53.015V24.143C28.1205 23.027 28.8045 22.271 29.8845 22.271ZM24.3405 22.487C25.4205 22.487 26.1045 23.207 26.1045 24.323V52.871C26.1045 53.987 25.4205 54.707 24.3405 54.707C23.2605 54.707 22.5765 53.987 22.5765 52.871V38.903H17.9325C16.8885 38.903 16.2405 38.219 16.2405 37.175C16.2405 36.131 16.8885 35.447 17.9325 35.447H22.5765V24.323C22.5765 23.207 23.2605 22.487 24.3405 22.487ZM13.6485 26.087V34.943C13.6485 42.107 11.5245 47.939 7.60047 51.647C6.80847 52.403 6.01647 52.619 5.15247 52.151C4.14447 51.575 3.89247 50.243 4.79247 49.415C8.28447 46.283 10.1205 41.207 10.1205 35.087V26.087C10.1205 25.007 10.8045 24.215 11.8845 24.215C12.9645 24.215 13.6485 25.007 13.6485 26.087ZM16.7085 44.123C17.4285 46.031 18.4005 47.795 19.8765 49.415C20.5965 50.207 20.6325 51.215 19.9125 51.899C19.1925 52.583 18.0045 52.655 17.2125 51.827C15.7365 50.243 14.4405 48.119 13.3245 45.455C12.9285 44.303 13.5045 43.295 14.4045 43.007C15.3405 42.683 16.3125 42.971 16.7085 44.123Z" fill="#233D4E"/>
</g>
</g>
</svg>
